<svg width="20" height="20" viewBox="0 0 20 20" fill="none" xmlns="http://www.w3.org/2000/svg">
<path d="M10.0002 10.0007C9.0835 10.0007 8.29877 9.67426 7.646 9.02148C6.99322 8.36871 6.66683 7.58398 6.66683 6.66732C6.66683 5.75065 6.99322 4.96593 7.646 4.31315C8.29877 3.66037 9.0835 3.33398 10.0002 3.33398C10.9168 3.33398 11.7016 3.66037 12.3543 4.31315C13.0071 4.96593 13.3335 5.75065 13.3335 6.66732C13.3335 7.58398 13.0071 8.36871 12.3543 9.02148C11.7016 9.67426 10.9168 10.0007 10.0002 10.0007ZM3.3335 15.0007V14.334C3.3335 13.8618 3.45516 13.4279 3.6985 13.0323C3.94183 12.6368 4.26461 12.3345 4.66683 12.1257C5.52794 11.6951 6.40294 11.3723 7.29183 11.1573C8.18072 10.9423 9.0835 10.8345 10.0002 10.834C10.9168 10.8334 11.8196 10.9412 12.7085 11.1573C13.5974 11.3734 14.4724 11.6962 15.3335 12.1257C15.7363 12.334 16.0593 12.6362 16.3027 13.0323C16.546 13.4284 16.6674 13.8623 16.6668 14.334V15.0007C16.6668 15.459 16.5038 15.8515 16.1777 16.1782C15.8516 16.5048 15.4591 16.6679 15.0002 16.6673H5.00016C4.54183 16.6673 4.14961 16.5043 3.8235 16.1782C3.49738 15.852 3.33405 15.4595 3.3335 15.0007Z" fill="#6B6B6B"/>
</svg>
