<svg width="750" height="750" viewBox="0 0 750 750" fill="none" xmlns="http://www.w3.org/2000/svg">
<g clip-path="url(#clip0_404_1831)">
<rect width="750" height="750" rx="200" fill="#F8F8F8"/>
<path d="M-109 114C-109 57.9948 -109 29.9921 -98.1007 8.60095C-88.5133 -10.2153 -73.2153 -25.5133 -54.3991 -35.1007C-33.0079 -46 -5.00525 -46 51 -46H699C755.005 -46 783.008 -46 804.399 -35.1007C823.215 -25.5133 838.513 -10.2153 848.101 8.60095C859 29.9921 859 57.9948 859 114V798C859 854.005 859 882.008 848.101 903.399C838.513 922.215 823.215 937.513 804.399 947.101C783.008 958 755.005 958 699 958H51C-5.00524 958 -33.0079 958 -54.3991 947.101C-73.2153 937.513 -88.5133 922.215 -98.1007 903.399C-109 882.008 -109 854.005 -109 798V114Z" fill="#F8F8F8"/>
<path d="M431.032 208.114L327.217 346.533L406.116 451.732L361.822 484.953C315.036 422.664 237.245 318.85 237.245 318.85L71.1418 540.32H680.186L431.032 208.114Z" fill="#51B69E"/>
<path d="M238.543 293.833C254.323 304.52 268.91 307.005 279.611 300.827L308.273 284.279C318.974 278.101 324.115 264.225 322.75 245.217C321.477 227.456 314.587 206.959 303.4 187.583C292.214 168.207 277.907 151.991 263.163 142.008C247.383 131.322 232.795 128.837 222.095 135.015L193.433 151.563C182.732 157.741 177.591 171.617 178.956 190.625C180.229 208.386 187.119 228.883 198.306 248.259C209.492 267.635 223.799 283.851 238.543 293.833ZM211.3 248.412L230.408 237.38C237.583 248.945 246.25 259.449 256.075 268.488L237.809 279.034C228.611 271.542 219.313 261.008 211.3 248.412ZM250.117 287.237L267.272 277.333C271.669 280.342 276.301 282.808 281.067 284.678L272.982 289.346C267.01 292.793 258.912 291.728 250.117 287.237ZM200.062 163.045L208.129 158.387C207.365 163.449 207.185 168.694 207.593 174.006L190.437 183.911C190.963 174.038 194.091 166.492 200.062 163.045ZM191.405 198.661L209.666 188.118C212.581 201.147 217.344 213.905 223.773 225.901L204.665 236.933C197.768 223.692 193.295 210.372 191.405 198.661Z" fill="#F9D619"/>
<path d="M253.967 233.51L250.567 227.621C249.044 228.115 247.547 228.422 246.075 228.54C244.621 228.687 243.235 228.621 241.919 228.341C240.586 228.033 239.352 227.495 238.216 226.727C237.108 225.942 236.111 224.882 235.225 223.546L234.22 222.106L242.845 216.145L244 217.845C244.474 218.533 245.041 219.014 245.699 219.289C246.341 219.534 247.005 219.651 247.691 219.639C248.39 219.582 249.084 219.451 249.774 219.246C250.475 218.994 251.123 218.717 251.717 218.412C252.542 217.974 253.319 217.487 254.049 216.95C254.762 216.385 255.354 215.812 255.827 215.231C256.283 214.621 256.576 214.029 256.706 213.453C256.848 212.832 256.767 212.225 256.462 211.631C256.162 211.111 255.745 210.756 255.211 210.564C254.689 210.326 254.048 210.215 253.287 210.231C252.555 210.23 251.733 210.339 250.82 210.558C249.92 210.732 248.932 210.955 247.859 211.229L241.738 212.627C238.718 213.331 235.971 213.339 233.495 212.651C231.02 211.963 229.069 210.318 227.644 207.716C227.039 206.602 226.687 205.458 226.587 204.285C226.498 203.065 226.613 201.864 226.93 200.68C227.276 199.479 227.811 198.305 228.533 197.156C229.256 196.008 230.117 194.933 231.117 193.932L228.567 189.516L237.921 184.116L240.421 188.446C243.922 187.31 247.011 187.161 249.69 188.001C252.381 188.796 254.569 190.285 256.253 192.468L256.446 192.703L248.008 198.788L247.141 197.787C246.385 196.876 245.341 196.401 244.009 196.362C242.69 196.277 241.416 196.57 240.187 197.241C239.564 197.562 238.997 197.947 238.486 198.396C237.988 198.799 237.583 199.264 237.271 199.79C236.971 200.271 236.785 200.783 236.713 201.325C236.654 201.821 236.774 202.329 237.074 202.849C237.345 203.385 237.756 203.764 238.307 203.984C238.87 204.16 239.48 204.25 240.137 204.255C240.824 204.244 241.528 204.164 242.251 204.016C242.974 203.869 243.674 203.714 244.352 203.554L249.363 202.335C251.098 201.873 252.75 201.534 254.32 201.321C255.919 201.09 257.42 201.09 258.823 201.319C260.209 201.52 261.47 202.004 262.606 202.772C263.742 203.54 264.713 204.654 265.517 206.114C266.21 207.447 266.584 208.828 266.64 210.258C266.708 211.643 266.487 213.06 265.976 214.51C265.478 215.914 264.717 217.296 263.694 218.656C262.716 220.029 261.508 221.304 260.071 222.48L262.271 226.291L253.967 233.51Z" fill="#F8F8F8"/>
</g>
<defs>
<clipPath id="clip0_404_1831">
<rect width="750" height="750" rx="200" fill="white"/>
</clipPath>
</defs>
</svg>
