<svg width="54" height="59" viewBox="0 0 54 59" fill="none" xmlns="http://www.w3.org/2000/svg">
<mask id="mask0_757_2387" style="mask-type:alpha" maskUnits="userSpaceOnUse" x="5" y="8" width="44" height="43">
<path fill-rule="evenodd" clip-rule="evenodd" d="M27.0004 11.7617C23.0135 11.7617 19.7359 13.1732 17.4829 15.8366C15.261 18.4632 14.19 22.1231 14.19 26.3638L14.19 27.7076C14.19 32.1243 12.9659 34.7395 11.2224 36.4296C10.5388 37.0922 10.4679 38.0092 10.7122 38.6839C10.9607 39.37 11.6417 40.07 12.6663 40.07H41.3345C42.3591 40.07 43.0401 39.37 43.2886 38.6839C43.533 38.0092 43.462 37.0922 42.7784 36.4296C41.0349 34.7395 39.8108 32.1243 39.8108 27.7076L39.8108 26.3638C39.8108 22.1231 38.7398 18.4632 36.518 15.8366C34.265 13.1732 30.9873 11.7617 27.0004 11.7617ZM17.415 26.3638C17.415 22.6284 18.3597 19.7935 19.9451 17.9194C21.4994 16.082 23.8207 14.9867 27.0004 14.9867C30.1802 14.9867 32.5015 16.082 34.0558 17.9194C35.6411 19.7935 36.5858 22.6284 36.5858 26.3638L36.5858 27.7075C36.5858 31.5824 37.4246 34.5645 38.9485 36.8451H15.0523C16.5763 34.5645 17.415 31.5824 17.415 27.7075L17.415 26.3638Z" fill="#171719"/>
<path d="M21.8048 44.0117V47.2367H32.1965V44.0117H21.8048Z" fill="#171719"/>
<path fill-rule="evenodd" clip-rule="evenodd" d="M27.0004 11.7617C23.0135 11.7617 19.7359 13.1732 17.4829 15.8366C15.261 18.4632 14.19 22.1231 14.19 26.3638L14.19 27.7076C14.19 32.1243 12.9659 34.7395 11.2224 36.4296C10.5388 37.0922 10.4679 38.0092 10.7122 38.6839C10.9607 39.37 11.6417 40.07 12.6663 40.07H41.3345C42.3591 40.07 43.0401 39.37 43.2886 38.6839C43.533 38.0092 43.462 37.0922 42.7784 36.4296C41.0349 34.7395 39.8108 32.1243 39.8108 27.7076L39.8108 26.3638C39.8108 22.1231 38.7398 18.4632 36.518 15.8366C34.265 13.1732 30.9873 11.7617 27.0004 11.7617ZM17.415 26.3638C17.415 22.6284 18.3597 19.7935 19.9451 17.9194C21.4994 16.082 23.8207 14.9867 27.0004 14.9867C30.1802 14.9867 32.5015 16.082 34.0558 17.9194C35.6411 19.7935 36.5858 22.6284 36.5858 26.3638L36.5858 27.7075C36.5858 31.5824 37.4246 34.5645 38.9485 36.8451H15.0523C16.5763 34.5645 17.415 31.5824 17.415 27.7075L17.415 26.3638Z" stroke="#171719"/>
<path d="M21.8048 44.0117V47.2367H32.1965V44.0117H21.8048Z" stroke="#171719"/>
</mask>
<g mask="url(#mask0_757_2387)">
<rect x="5.5" y="8" width="42.9999" height="43" fill="#171719"/>
</g>
</svg>
