<svg width="307" height="304" viewBox="0 0 307 304" fill="none" xmlns="http://www.w3.org/2000/svg">
<path d="M307 152C307 235.947 238.276 304 153.5 304C68.7243 304 0 235.947 0 152C0 68.0527 68.7243 0 153.5 0C238.276 0 307 68.0527 307 152Z" fill="black" fill-opacity="0.45"/>
<path d="M163.5 149.875C163.5 152.428 162.486 154.876 160.681 156.681C158.876 158.486 156.428 159.5 153.875 159.5C151.322 159.5 148.874 158.486 147.069 156.681C145.264 154.876 144.25 152.428 144.25 149.875C144.25 147.322 145.264 144.874 147.069 143.069C148.874 141.264 151.322 140.25 153.875 140.25C156.428 140.25 158.876 141.264 160.681 143.069C162.486 144.874 163.5 147.322 163.5 149.875ZM140.766 124.994C141.365 123.794 142.287 122.785 143.427 122.079C144.568 121.374 145.883 121 147.224 121H160.526C161.867 121 163.182 121.374 164.323 122.079C165.463 122.785 166.385 123.794 166.984 124.994L169.8 130.625H173.125C175.678 130.625 178.126 131.639 179.931 133.444C181.736 135.249 182.75 137.697 182.75 140.25V164.312C182.75 166.865 181.736 169.313 179.931 171.118C178.126 172.923 175.678 173.938 173.125 173.938H134.625C132.072 173.938 129.624 172.923 127.819 171.118C126.014 169.313 125 166.865 125 164.312V140.25C125 137.697 126.014 135.249 127.819 133.444C129.624 131.639 132.072 130.625 134.625 130.625H137.95L140.766 124.994ZM168.312 149.875C168.312 146.046 166.791 142.374 164.084 139.666C161.376 136.959 157.704 135.438 153.875 135.438C150.046 135.438 146.374 136.959 143.666 139.666C140.959 142.374 139.438 146.046 139.438 149.875C139.438 153.704 140.959 157.376 143.666 160.084C146.374 162.791 150.046 164.312 153.875 164.312C157.704 164.312 161.376 162.791 164.084 160.084C166.791 157.376 168.312 153.704 168.312 149.875Z" fill="white"/>
</svg>
