<svg width="27" height="34" viewBox="0 0 27 34" fill="none" xmlns="http://www.w3.org/2000/svg">
<path d="M3.54167 20C2.6025 20 1.70179 20.373 1.03762 21.037C0.373457 21.701 0.00022098 22.6017 0 23.5408V24.1667C0 27.2967 1.61833 29.6392 4.1 31.15C6.54167 32.6358 9.82167 33.3333 13.3333 33.3333C16.845 33.3333 20.125 32.6358 22.5667 31.15C25.0483 29.6392 26.6667 27.2967 26.6667 24.1667V23.5408C26.6664 22.6017 26.2932 21.701 25.629 21.037C24.9649 20.373 24.0642 20 23.125 20H3.54167Z" fill="url(#paint0_linear_902_2177)"/>
<path d="M3.54167 20C2.6025 20 1.70179 20.373 1.03762 21.037C0.373457 21.701 0.00022098 22.6017 0 23.5408V24.1667C0 27.2967 1.61833 29.6392 4.1 31.15C6.54167 32.6358 9.82167 33.3333 13.3333 33.3333C16.845 33.3333 20.125 32.6358 22.5667 31.15C25.0483 29.6392 26.6667 27.2967 26.6667 24.1667V23.5408C26.6664 22.6017 26.2932 21.701 25.629 21.037C24.9649 20.373 24.0642 20 23.125 20H3.54167Z" fill="#51B69E"/>
<path d="M13.3333 0C8.73083 0 5 3.73083 5 8.33333C5 12.9358 8.73083 16.6667 13.3333 16.6667C17.9358 16.6667 21.6667 12.9358 21.6667 8.33333C21.6667 3.73083 17.9358 0 13.3333 0Z" fill="#51B69E"/>
<defs>
<linearGradient id="paint0_linear_902_2177" x1="6.34167" y1="21.7725" x2="10.6492" y2="35.5292" gradientUnits="userSpaceOnUse">
<stop offset="0.125" stop-color="#A3D1C6"/>
<stop offset="1" stop-color="#51B69E"/>
</linearGradient>
</defs>
</svg>
