<svg width="41" height="33" viewBox="0 0 41 33" fill="none" xmlns="http://www.w3.org/2000/svg">
<g id="fa-solid:user-friends">
<path id="Vector" d="M12.1602 16.9004C16.0289 16.9004 19.1602 13.7691 19.1602 9.90039C19.1602 6.03164 16.0289 2.90039 12.1602 2.90039C8.29141 2.90039 5.16016 6.03164 5.16016 9.90039C5.16016 13.7691 8.29141 16.9004 12.1602 16.9004ZM16.9602 18.9004H16.4414C15.1414 19.5254 13.6977 19.9004 12.1602 19.9004C10.6227 19.9004 9.18516 19.5254 7.87891 18.9004H7.36016C3.38516 18.9004 0.160156 22.1254 0.160156 26.1004V27.9004C0.160156 29.5566 1.50391 30.9004 3.16016 30.9004H21.1602C22.8164 30.9004 24.1602 29.5566 24.1602 27.9004V26.1004C24.1602 22.1254 20.9352 18.9004 16.9602 18.9004ZM30.1602 16.9004C33.4727 16.9004 36.1602 14.2129 36.1602 10.9004C36.1602 7.58789 33.4727 4.90039 30.1602 4.90039C26.8477 4.90039 24.1602 7.58789 24.1602 10.9004C24.1602 14.2129 26.8477 16.9004 30.1602 16.9004ZM33.1602 18.9004H32.9227C32.0539 19.2004 31.1352 19.4004 30.1602 19.4004C29.1852 19.4004 28.2664 19.2004 27.3977 18.9004H27.1602C25.8852 18.9004 24.7102 19.2691 23.6789 19.8629C25.2039 21.5066 26.1602 23.6879 26.1602 26.1004V28.5004C26.1602 28.6379 26.1289 28.7691 26.1227 28.9004H37.1602C38.8164 28.9004 40.1602 27.5566 40.1602 25.9004C40.1602 22.0316 37.0289 18.9004 33.1602 18.9004Z" fill="#111111"/>
</g>
</svg>
