<svg width="22" height="24" viewBox="0 0 22 24" fill="none" xmlns="http://www.w3.org/2000/svg">
<path d="M19.375 22.4896C19.6955 22.4896 20.0028 22.3623 20.2294 22.1357C20.456 21.9091 20.5833 21.6017 20.5833 21.2812V19.7757C20.5882 16.3851 15.7814 13.7292 10.9167 13.7292C6.05192 13.7292 1.25 16.3851 1.25 19.7757V21.2812C1.25 21.6017 1.37731 21.9091 1.60391 22.1357C1.83052 22.3623 2.13786 22.4896 2.45833 22.4896H19.375ZM15.2715 5.69858C15.2715 6.27047 15.1589 6.83675 14.94 7.36511C14.7212 7.89346 14.4004 8.37353 13.996 8.77791C13.5916 9.1823 13.1115 9.50307 12.5832 9.72192C12.0548 9.94077 11.4886 10.0534 10.9167 10.0534C10.3448 10.0534 9.7785 9.94077 9.25014 9.72192C8.72179 9.50307 8.24172 9.1823 7.83733 8.77791C7.43295 8.37353 7.11218 7.89346 6.89332 7.36511C6.67447 6.83675 6.56183 6.27047 6.56183 5.69858C6.56183 4.54361 7.02064 3.43594 7.83733 2.61925C8.65402 1.80256 9.76169 1.34375 10.9167 1.34375C12.0716 1.34375 13.1793 1.80256 13.996 2.61925C14.8127 3.43594 15.2715 4.54361 15.2715 5.69858Z" stroke="#D9D9D9" stroke-width="1.5" stroke-linecap="round" stroke-linejoin="round"/>
</svg>
