<svg width="30" height="40" viewBox="0 0 30 40" fill="none" xmlns="http://www.w3.org/2000/svg">
<path d="M15 30.3125C14.0054 30.3125 13.0516 29.9174 12.3484 29.2142C11.6451 28.5109 11.25 27.5571 11.25 26.5625C11.25 24.4813 12.9187 22.8125 15 22.8125C15.9946 22.8125 16.9484 23.2076 17.6516 23.9109C18.3549 24.6141 18.75 25.5679 18.75 26.5625C18.75 27.5571 18.3549 28.5109 17.6516 29.2142C16.9484 29.9174 15.9946 30.3125 15 30.3125ZM26.25 35.9375V17.1875H3.75V35.9375H26.25ZM26.25 13.4375C27.2446 13.4375 28.1984 13.8326 28.9016 14.5359C29.6049 15.2391 30 16.1929 30 17.1875V35.9375C30 36.9321 29.6049 37.8859 28.9016 38.5892C28.1984 39.2924 27.2446 39.6875 26.25 39.6875H3.75C2.75544 39.6875 1.80161 39.2924 1.09835 38.5892C0.395088 37.8859 0 36.9321 0 35.9375V17.1875C0 15.1063 1.66875 13.4375 3.75 13.4375H5.625V9.6875C5.625 7.2011 6.61272 4.81653 8.37087 3.05837C10.129 1.30022 12.5136 0.3125 15 0.3125C16.2311 0.3125 17.4502 0.554992 18.5877 1.02613C19.7251 1.49727 20.7586 2.18782 21.6291 3.05837C22.4997 3.92892 23.1902 4.96242 23.6614 6.09984C24.1325 7.23727 24.375 8.45636 24.375 9.6875V13.4375H26.25ZM15 4.0625C13.5082 4.0625 12.0774 4.65513 11.0225 5.71003C9.96763 6.76492 9.375 8.19566 9.375 9.6875V13.4375H20.625V9.6875C20.625 8.19566 20.0324 6.76492 18.9775 5.71003C17.9226 4.65513 16.4918 4.0625 15 4.0625Z" fill="#51B69E"/>
</svg>
