<svg width="200" height="200" viewBox="0 0 200 200" fill="none" xmlns="http://www.w3.org/2000/svg">
<rect width="200" height="200" fill="#E5E5E5"/>
<path d="M100 92.5C104.065 92.5 107.5 95.935 107.5 100C107.5 104.065 104.065 107.5 100 107.5C95.935 107.5 92.5 104.065 92.5 100C92.5 95.935 95.935 92.5 100 92.5Z" fill="#979595"/>
<path d="M80 82.5H86.465L93.2325 75.7325C93.7012 75.2636 94.337 75.0001 95 75H105C105.663 75.0001 106.299 75.2636 106.767 75.7325L113.535 82.5H120C122.757 82.5 125 84.7425 125 87.5V115C125 117.758 122.757 120 120 120H80C77.2425 120 75 117.758 75 115V87.5C75 84.7425 77.2425 82.5 80 82.5ZM100 112.5C106.775 112.5 112.5 106.775 112.5 100C112.5 93.225 106.775 87.5 100 87.5C93.225 87.5 87.5 93.225 87.5 100C87.5 106.775 93.225 112.5 100 112.5Z" fill="#979595"/>
</svg>
