<svg width="283" height="116" viewBox="0 0 283 116" fill="none" xmlns="http://www.w3.org/2000/svg">
<g clip-path="url(#clip0_127_887)">
<path d="M0 32.1107C0 20.871 0 15.251 2.14202 10.958C4.02621 7.1817 7.03269 4.11152 10.7306 2.1874C14.9346 0 20.4379 0 31.4444 0H251.556C262.563 0 268.066 0 272.27 2.1874C275.968 4.11152 278.973 7.1817 280.858 10.958C283 15.251 283 20.871 283 32.1107V83.8893C283 95.129 283 100.749 280.858 105.042C278.973 108.818 275.968 111.888 272.27 113.813C268.066 116 262.563 116 251.556 116H31.4444C20.4379 116 14.9346 116 10.7306 113.813C7.03269 111.888 4.02621 108.818 2.14202 105.042C0 100.749 0 95.129 0 83.8893V32.1107Z" fill="#FFFEFE"/>
<path d="M145.71 80.6421V77.8324L128.238 79.9116V56.4507H143.536V61.48H133.879V65.3012L142.986 64.4864V69.3471L133.879 70.2181V74.0393L145.71 72.7749V56.0854H151.377V79.5182L145.71 80.6421ZM155.93 80.3892V73.674L171.998 72.5502V71.9039L155.93 73.0278V69.9091L177.666 68.3356V74.9103L161.598 76.0623V76.7366L178.189 75.7251V80.3892H155.93ZM154.059 69.2347V65.3855L179.592 63.5873V67.4365L154.059 69.2347ZM172.273 63.5592V60.2718H166.716V56.0854H177.804V63.1658L172.273 63.5592ZM160.167 64.374V60.2718H155.16V56.0854H165.698V64.0087L160.167 64.374ZM181.036 79.4339V74.6855L190.886 74.0955V70.8925L183.099 71.342V56.2259H204.505V70.0776L196.718 70.5553V73.7583L206.568 73.1402V79.4339H181.036ZM198.837 61.2552H188.767V65.7507L198.837 65.0483V61.2552ZM208.013 79.4339V74.6855L233.546 73.1402V79.4339H208.013ZM218.413 71.8758C217.11 71.8758 215.909 71.6886 214.809 71.3139C213.726 70.9392 212.79 70.4054 212.002 69.7124C211.232 69.0005 210.627 68.1484 210.186 67.1556C209.764 66.1627 209.554 65.0483 209.554 63.812C209.554 62.5758 209.764 61.4613 210.186 60.4685C210.627 59.4757 211.232 58.6328 212.002 57.9398C212.79 57.2279 213.726 56.6849 214.809 56.3102C215.909 55.9355 217.11 55.7482 218.413 55.7482H223.173C224.474 55.7482 225.667 55.9355 226.75 56.3102C227.85 56.6849 228.786 57.2279 229.556 57.9398C230.344 58.6328 230.95 59.4757 231.372 60.4685C231.812 61.4613 232.032 62.5758 232.032 63.812C232.032 65.0483 231.812 66.1627 231.372 67.1556C230.95 68.1484 230.344 69.0005 229.556 69.7124C228.786 70.4054 227.85 70.9392 226.75 71.3139C225.667 71.6886 224.474 71.8758 223.173 71.8758H218.413ZM222.733 66.8465C223.833 66.8465 224.714 66.5842 225.374 66.0598C226.034 65.5165 226.365 64.7673 226.365 63.812C226.365 62.8567 226.034 62.1168 225.374 61.5924C224.714 61.0491 223.833 60.7776 222.733 60.7776H218.853C217.753 60.7776 216.872 61.0491 216.212 61.5924C215.552 62.1168 215.221 62.8567 215.221 63.812C215.221 64.7673 215.552 65.5165 216.212 66.0598C216.872 66.5842 217.753 66.8465 218.853 66.8465H222.733ZM238.29 79.5463L234.465 75.388L245.444 65.6383V61.6205H236.364V56.4507H251.249V67.8861L238.29 79.5463ZM253.615 80.6421V56.0854H259.283V79.5182L253.615 80.6421Z" fill="#51B69E"/>
<path d="M79.9217 33.1142L64.568 54.0197L76.2368 69.9077L69.6858 74.925C62.7664 65.5175 51.2613 49.8385 51.2613 49.8385L26.6953 83.2872H116.771L79.9217 33.1142Z" fill="#51B69E"/>
<path d="M51.4384 46.0775C53.7721 47.6914 55.9296 48.0669 57.5123 47.1339L61.7512 44.6345C63.3338 43.7015 64.0942 41.6059 63.8923 38.735C63.7041 36.0525 62.6851 32.9568 61.0305 30.0305C59.3761 27.1043 57.2603 24.6552 55.0796 23.1474C52.7459 21.5334 50.5884 21.1581 49.0057 22.0912L44.7668 24.5904C43.1842 25.5234 42.4238 27.6192 42.6257 30.4901C42.8139 33.1724 43.8329 36.2683 45.4875 39.1945C47.1419 42.1208 49.2579 44.5699 51.4384 46.0775ZM47.4092 39.2174L50.2352 37.5513C51.2965 39.2981 52.5782 40.8846 54.0314 42.2497L51.3299 43.8424C49.9695 42.7109 48.5944 41.12 47.4092 39.2174ZM53.1501 45.0814L55.6873 43.5855C56.3376 44.0399 57.0227 44.4123 57.7276 44.6947L56.5318 45.3997C55.6486 45.9203 54.4509 45.7596 53.1501 45.0814ZM45.7473 26.3246L46.9402 25.6211C46.8274 26.3856 46.8007 27.1777 46.861 27.9801L44.3237 29.4758C44.4017 27.9849 44.8641 26.8452 45.7473 26.3246ZM44.4669 31.7037L47.1676 30.1114C47.5988 32.079 48.3032 34.0058 49.254 35.8177L46.4279 37.4838C45.4079 35.4841 44.7464 33.4724 44.4669 31.7037Z" fill="#F9D619"/>
<path d="M56.8535 38.4986L56.1854 37.3167C55.886 37.4158 55.5916 37.4774 55.3025 37.5011C55.0166 37.5306 54.7444 37.5174 54.4858 37.4612C54.2238 37.3994 53.9813 37.2914 53.7578 37.1373C53.5403 36.9797 53.3443 36.767 53.17 36.4989L52.9727 36.2099L54.6678 35.0135L54.8946 35.3547C54.9879 35.4928 55.0991 35.5895 55.2287 35.6445C55.3548 35.6937 55.4853 35.7172 55.6201 35.7148C55.7575 35.7035 55.8939 35.677 56.0293 35.6359C56.1673 35.5853 56.2946 35.5297 56.4114 35.4685C56.5735 35.3806 56.7262 35.2829 56.8697 35.1753C57.0096 35.0617 57.1261 34.9467 57.2191 34.8301C57.3087 34.7077 57.3663 34.5889 57.3918 34.4733C57.4197 34.3486 57.4038 34.2268 57.3439 34.1076C57.2849 34.0033 57.203 33.932 57.098 33.8935C56.9954 33.8457 56.8693 33.8234 56.7199 33.8266C56.576 33.8264 56.4145 33.8483 56.2351 33.8923C56.058 33.9272 55.864 33.9721 55.653 34.0269L54.45 34.3075C53.8567 34.4488 53.3168 34.4504 52.8302 34.3123C52.3438 34.1742 51.9604 33.8441 51.6803 33.3219C51.5614 33.0983 51.4923 32.8687 51.4724 32.6333C51.4551 32.3885 51.4777 32.1475 51.54 31.9098C51.608 31.6688 51.713 31.4332 51.8551 31.2026C51.9971 30.9722 52.1664 30.7565 52.3629 30.5556L51.8617 29.6693L53.6999 28.5856L54.1912 29.4546C54.8792 29.2266 55.4865 29.1969 56.013 29.3653C56.5419 29.5248 56.9719 29.8236 57.3028 30.2618L57.3407 30.3089L55.6824 31.5301L55.512 31.3292C55.3635 31.1464 55.1583 31.0511 54.8965 31.0432C54.6373 31.0262 54.3869 31.085 54.1454 31.2197C54.023 31.2841 53.9115 31.3613 53.8111 31.4515C53.7132 31.5323 53.6336 31.6257 53.5723 31.7312C53.5134 31.8278 53.4768 31.9305 53.4627 32.0393C53.4509 32.1388 53.4745 32.2408 53.5334 32.3451C53.5869 32.4527 53.6676 32.5288 53.7757 32.5729C53.8866 32.6082 54.0064 32.6263 54.1356 32.6273C54.2704 32.6251 54.4089 32.609 54.551 32.5795C54.6931 32.5498 54.8307 32.5189 54.9637 32.4866L55.9487 32.242C56.2897 32.1493 56.6144 32.0814 56.9229 32.0385C57.2372 31.9921 57.5322 31.9921 57.8079 32.0381C58.0803 32.0784 58.3281 32.1756 58.5514 32.3297C58.7746 32.4838 58.9654 32.7076 59.1234 33.0006C59.2594 33.2679 59.3329 33.5451 59.3439 33.8323C59.3575 34.11 59.3141 34.3944 59.2136 34.6854C59.1158 34.9672 58.9662 35.2445 58.7652 35.5175C58.573 35.793 58.3356 36.0489 58.053 36.2851L58.4853 37.0498L56.8535 38.4986Z" fill="white"/>
</g>
<defs>
<clipPath id="clip0_127_887">
<rect width="283" height="116" fill="white"/>
</clipPath>
</defs>
</svg>
