<svg width="22" height="21" viewBox="0 0 22 21" fill="none" xmlns="http://www.w3.org/2000/svg">
<path d="M12.8913 12.8662L18.945 11.2136L12.2218 20.8153L0.699683 12.7474L7.42289 3.1457L7.99818 9.42878L13.1839 7.17963L12.8913 12.8662ZM9.72771 1.89767C9.63316 2.0327 9.52061 2.14021 9.39007 2.22022C9.25952 2.30022 9.12197 2.35297 8.97743 2.37845C8.83289 2.40394 8.68134 2.40217 8.5228 2.37314C8.36426 2.34411 8.22173 2.28157 8.09521 2.18553C7.96019 2.09098 7.85267 1.97844 7.77267 1.84789C7.69266 1.71734 7.63992 1.5798 7.61443 1.43525C7.58895 1.29071 7.59072 1.13917 7.61975 0.980626C7.64878 0.822086 7.71131 0.679555 7.80736 0.553033C7.9019 0.418009 8.01445 0.310495 8.145 0.230491C8.27555 0.150486 8.41309 0.0977409 8.55763 0.0722539C8.70218 0.046767 8.85372 0.0485386 9.01226 0.0775687C9.1708 0.106599 9.31333 0.169136 9.43985 0.26518C9.57488 0.359726 9.68239 0.472272 9.7624 0.602819C9.8424 0.733367 9.89515 0.870912 9.92063 1.01546C9.94612 1.16 9.94435 1.31154 9.91532 1.47008C9.88629 1.62862 9.82375 1.77115 9.72771 1.89767ZM13.8563 6.21945C13.7212 6.12491 13.6137 6.01236 13.5337 5.88181C13.4537 5.75127 13.401 5.61372 13.3755 5.46918C13.35 5.32463 13.3518 5.17309 13.3808 5.01455C13.4098 4.85601 13.4724 4.71348 13.5684 4.58696C13.6629 4.45193 13.7755 4.34442 13.906 4.26442C14.0366 4.18441 14.1741 4.13167 14.3187 4.10618C14.4632 4.08069 14.6148 4.08246 14.7733 4.11149C14.9318 4.14052 15.0744 4.20306 15.2009 4.29911C15.3359 4.39365 15.4434 4.5062 15.5234 4.63674C15.6034 4.76729 15.6562 4.90484 15.6817 5.04938C15.7072 5.19392 15.7054 5.34547 15.6764 5.50401C15.6473 5.66255 15.5848 5.80508 15.4887 5.9316C15.3942 6.06662 15.2817 6.17414 15.1511 6.25414C15.0206 6.33415 14.883 6.38689 14.7385 6.41238C14.5939 6.43787 14.4424 6.43609 14.2838 6.40706C14.1253 6.37803 13.9828 6.3155 13.8563 6.21945ZM20.9619 8.33303C21.097 8.42758 21.2045 8.54012 21.2845 8.67067C21.3645 8.80122 21.4172 8.93876 21.4427 9.08331C21.4682 9.22785 21.4664 9.37939 21.4374 9.53793C21.4084 9.69647 21.3458 9.839 21.2498 9.96552C21.1552 10.1005 21.0427 10.2081 20.9122 10.2881C20.7816 10.3681 20.6441 10.4208 20.4995 10.4463C20.355 10.4718 20.2034 10.47 20.0449 10.441C19.8863 10.412 19.7438 10.3494 19.6173 10.2534C19.4823 10.1588 19.3748 10.0463 19.2948 9.91574C19.2147 9.78519 19.162 9.64765 19.1365 9.5031C19.111 9.35856 19.1128 9.20702 19.1418 9.04848C19.1709 8.88994 19.2334 8.74741 19.3294 8.62088C19.424 8.48586 19.5365 8.37834 19.6671 8.29834C19.7976 8.21834 19.9352 8.16559 20.0797 8.1401C20.2243 8.11462 20.3758 8.11639 20.5343 8.14542C20.6929 8.17445 20.8354 8.23699 20.9619 8.33303Z" fill="#FECB12"/>
</svg>
