<svg width="22" height="21" viewBox="0 0 22 21" fill="none" xmlns="http://www.w3.org/2000/svg">
<path d="M12.8708 12.8662L18.9245 11.2136L12.2013 20.8153L0.679175 12.7474L7.40238 3.1457L7.97767 9.42878L13.1634 7.17963L12.8708 12.8662ZM9.7072 1.89767C9.61265 2.0327 9.50011 2.14021 9.36956 2.22022C9.23901 2.30022 9.10147 2.35297 8.95692 2.37845C8.81238 2.40394 8.66084 2.40217 8.5023 2.37314C8.34376 2.34411 8.20123 2.28157 8.0747 2.18553C7.93968 2.09098 7.83217 1.97844 7.75216 1.84789C7.67216 1.71734 7.61941 1.5798 7.59392 1.43525C7.56844 1.29071 7.57021 1.13917 7.59924 0.980626C7.62827 0.822086 7.69081 0.679555 7.78685 0.553033C7.8814 0.418009 7.99394 0.310495 8.12449 0.230491C8.25504 0.150486 8.39258 0.0977409 8.53713 0.0722539C8.68167 0.046767 8.83321 0.0485386 8.99175 0.0775687C9.15029 0.106599 9.29282 0.169136 9.41935 0.26518C9.55437 0.359726 9.66188 0.472272 9.74189 0.602819C9.82189 0.733367 9.87464 0.870912 9.90012 1.01546C9.92561 1.16 9.92384 1.31154 9.89481 1.47008C9.86578 1.62862 9.80324 1.77115 9.7072 1.89767ZM13.8357 6.21945C13.7007 6.12491 13.5932 6.01236 13.5132 5.88181C13.4332 5.75127 13.3805 5.61372 13.355 5.46918C13.3295 5.32463 13.3313 5.17309 13.3603 5.01455C13.3893 4.85601 13.4518 4.71348 13.5479 4.58696C13.6424 4.45193 13.755 4.34442 13.8855 4.26442C14.0161 4.18441 14.1536 4.13167 14.2982 4.10618C14.4427 4.08069 14.5943 4.08246 14.7528 4.11149C14.9113 4.14052 15.0539 4.20306 15.1804 4.29911C15.3154 4.39365 15.4229 4.5062 15.5029 4.63674C15.5829 4.76729 15.6357 4.90484 15.6612 5.04938C15.6867 5.19392 15.6849 5.34547 15.6559 5.50401C15.6268 5.66255 15.5643 5.80508 15.4682 5.9316C15.3737 6.06662 15.2611 6.17414 15.1306 6.25414C15.0001 6.33415 14.8625 6.38689 14.718 6.41238C14.5734 6.43787 14.4219 6.43609 14.2633 6.40706C14.1048 6.37803 13.9623 6.3155 13.8357 6.21945ZM20.9414 8.33303C21.0765 8.42758 21.184 8.54012 21.264 8.67067C21.344 8.80122 21.3967 8.93876 21.4222 9.08331C21.4477 9.22785 21.4459 9.37939 21.4169 9.53793C21.3879 9.69647 21.3253 9.839 21.2293 9.96552C21.1347 10.1005 21.0222 10.2081 20.8916 10.2881C20.7611 10.3681 20.6236 10.4208 20.479 10.4463C20.3345 10.4718 20.1829 10.47 20.0244 10.441C19.8658 10.412 19.7233 10.3494 19.5968 10.2534C19.4618 10.1588 19.3542 10.0463 19.2742 9.91574C19.1942 9.78519 19.1415 9.64765 19.116 9.5031C19.0905 9.35856 19.0923 9.20702 19.1213 9.04848C19.1504 8.88994 19.2129 8.74741 19.3089 8.62088C19.4035 8.48586 19.516 8.37834 19.6466 8.29834C19.7771 8.21834 19.9147 8.16559 20.0592 8.1401C20.2038 8.11462 20.3553 8.11639 20.5138 8.14542C20.6724 8.17445 20.8149 8.23699 20.9414 8.33303Z" fill="#C9C9C9"/>
</svg>
