<svg width="22" height="21" viewBox="0 0 22 21" fill="none" xmlns="http://www.w3.org/2000/svg">
<path d="M12.6647 12.8662L18.7184 11.2136L11.9952 20.8153L0.47312 12.7474L7.19633 3.1457L7.77161 9.42878L12.9574 7.17963L12.6647 12.8662ZM9.50114 1.89767C9.4066 2.0327 9.29405 2.14021 9.1635 2.22022C9.03296 2.30022 8.89541 2.35297 8.75087 2.37845C8.60632 2.40394 8.45478 2.40217 8.29624 2.37314C8.1377 2.34411 7.99517 2.28157 7.86865 2.18553C7.73362 2.09098 7.62611 1.97844 7.54611 1.84789C7.4661 1.71734 7.41336 1.5798 7.38787 1.43525C7.36238 1.29071 7.36415 1.13917 7.39318 0.980626C7.42221 0.822086 7.48475 0.679555 7.5808 0.553033C7.67534 0.418009 7.78789 0.310495 7.91844 0.230491C8.04898 0.150486 8.18653 0.0977409 8.33107 0.0722539C8.47562 0.046767 8.62716 0.0485386 8.7857 0.0775687C8.94424 0.106599 9.08677 0.169136 9.21329 0.26518C9.34832 0.359726 9.45583 0.472272 9.53583 0.602819C9.61584 0.733367 9.66858 0.870912 9.69407 1.01546C9.71956 1.16 9.71779 1.31154 9.68876 1.47008C9.65973 1.62862 9.59719 1.77115 9.50114 1.89767ZM13.6297 6.21945C13.4947 6.12491 13.3872 6.01236 13.3071 5.88181C13.2271 5.75127 13.1744 5.61372 13.1489 5.46918C13.1234 5.32463 13.1252 5.17309 13.1542 5.01455C13.1833 4.85601 13.2458 4.71348 13.3418 4.58696C13.4364 4.45193 13.5489 4.34442 13.6795 4.26442C13.81 4.18441 13.9476 4.13167 14.0921 4.10618C14.2367 4.08069 14.3882 4.08246 14.5467 4.11149C14.7053 4.14052 14.8478 4.20306 14.9743 4.29911C15.1094 4.39365 15.2169 4.5062 15.2969 4.63674C15.3769 4.76729 15.4296 4.90484 15.4551 5.04938C15.4806 5.19392 15.4788 5.34547 15.4498 5.50401C15.4208 5.66255 15.3582 5.80508 15.2622 5.9316C15.1676 6.06662 15.0551 6.17414 14.9245 6.25414C14.794 6.33415 14.6565 6.38689 14.5119 6.41238C14.3674 6.43787 14.2158 6.43609 14.0573 6.40706C13.8987 6.37803 13.7562 6.3155 13.6297 6.21945ZM20.7354 8.33303C20.8704 8.42758 20.9779 8.54012 21.0579 8.67067C21.1379 8.80122 21.1907 8.93876 21.2162 9.08331C21.2416 9.22785 21.2399 9.37939 21.2108 9.53793C21.1818 9.69647 21.1193 9.839 21.0232 9.96552C20.9287 10.1005 20.8161 10.2081 20.6856 10.2881C20.555 10.3681 20.4175 10.4208 20.273 10.4463C20.1284 10.4718 19.9769 10.47 19.8183 10.441C19.6598 10.412 19.5173 10.3494 19.3907 10.2534C19.2557 10.1588 19.1482 10.0463 19.0682 9.91574C18.9882 9.78519 18.9354 9.64765 18.91 9.5031C18.8845 9.35856 18.8862 9.20702 18.9153 9.04848C18.9443 8.88994 19.0068 8.74741 19.1029 8.62088C19.1974 8.48586 19.31 8.37834 19.4405 8.29834C19.5711 8.21834 19.7086 8.16559 19.8532 8.1401C19.9977 8.11462 20.1492 8.11639 20.3078 8.14542C20.4663 8.17445 20.6089 8.23699 20.7354 8.33303Z" fill="#F6AC74"/>
</svg>
