<svg width="50" height="50" viewBox="0 0 50 50" fill="none" xmlns="http://www.w3.org/2000/svg">
<path d="M24.9998 18.7869C28.3091 18.7869 31.1055 21.5833 31.1055 24.8926C31.1055 28.2018 28.3091 30.9982 24.9998 30.9982C21.6905 30.9982 18.8941 28.2018 18.8941 24.8926C18.8941 21.5833 21.6905 18.7869 24.9998 18.7869Z" fill="#979595"/>
<path d="M8.71744 10.646H13.9805L19.4899 5.13661C19.8715 4.7549 20.3891 4.5404 20.9288 4.54028H29.0697C29.6095 4.5404 30.127 4.7549 30.5086 5.13661L36.018 10.646H41.2811C43.526 10.646 45.3516 12.4716 45.3516 14.7164V37.1039C45.3516 39.3488 43.526 41.1744 41.2811 41.1744H8.71744C6.47258 41.1744 4.64698 39.3488 4.64698 37.1039V14.7164C4.64698 12.4716 6.47258 10.646 8.71744 10.646ZM24.9993 35.0687C30.5147 35.0687 35.1754 30.408 35.1754 24.8926C35.1754 19.3771 30.5147 14.7164 24.9993 14.7164C19.4838 14.7164 14.8231 19.3771 14.8231 24.8926C14.8231 30.408 19.4838 35.0687 24.9993 35.0687Z" fill="#979595"/>
</svg>
