<svg width="20" height="20" viewBox="0 0 20 20" fill="none" xmlns="http://www.w3.org/2000/svg">
<path d="M15 4.6001C16.1046 4.6001 17 3.70467 17 2.6001C17 1.49553 16.1046 0.600098 15 0.600098C13.8954 0.600098 13 1.49553 13 2.6001C13 3.70467 13.8954 4.6001 15 4.6001Z" fill="#606060"/>
<path d="M13.777 9.53902C14.0069 9.88077 14.3362 10.1437 14.7204 10.2921C15.1045 10.4406 15.5251 10.4674 15.925 10.369L19.241 9.54002L18.758 7.60002L15.442 8.42902L14.063 6.36202C13.9175 6.14306 13.7303 5.95493 13.512 5.80839C13.2938 5.66185 13.0487 5.55978 12.791 5.50802L8.945 4.73802C8.51476 4.65202 8.06818 4.70988 7.67406 4.90269C7.27994 5.0955 6.96017 5.41256 6.764 5.80502L5.106 9.12102L6.895 10.016L8.553 6.69902L10.52 7.09302L5.434 15.57H1V17.57H5.434C6.132 17.57 6.789 17.198 7.149 16.599L9.067 13.403L14.236 14.437L16.052 19.886L17.948 19.253L16.133 13.805C16.0207 13.4707 15.8225 13.1718 15.5581 12.9383C15.2938 12.7049 14.9726 12.5451 14.627 12.475L11.588 11.868L13.36 8.91402L13.777 9.53902Z" fill="#606060"/>
</svg>
