<svg width="35" height="35" viewBox="0 0 35 35" fill="none" xmlns="http://www.w3.org/2000/svg">
<path d="M26.25 23.45C25.1417 23.45 24.15 23.8875 23.3917 24.5729L12.9937 18.5208C13.0667 18.1854 13.125 17.85 13.125 17.5C13.125 17.15 13.0667 16.8145 12.9937 16.4791L23.275 10.4854C24.0625 11.2145 25.0979 11.6666 26.25 11.6666C28.6708 11.6666 30.625 9.71246 30.625 7.29163C30.625 4.87079 28.6708 2.91663 26.25 2.91663C23.8292 2.91663 21.875 4.87079 21.875 7.29163C21.875 7.64163 21.9333 7.97704 22.0063 8.31246L11.725 14.3062C10.9375 13.577 9.90208 13.125 8.75 13.125C6.32917 13.125 4.375 15.0791 4.375 17.5C4.375 19.9208 6.32917 21.875 8.75 21.875C9.90208 21.875 10.9375 21.4229 11.725 20.6937L22.1083 26.7604C22.0354 27.0666 21.9917 27.3875 21.9917 27.7083C21.9917 30.0562 23.9021 31.9666 26.25 31.9666C28.5979 31.9666 30.5083 30.0562 30.5083 27.7083C30.5083 25.3604 28.5979 23.45 26.25 23.45Z" fill="#606060"/>
</svg>
