<svg width="24" height="24" viewBox="0 0 24 24" fill="none" xmlns="http://www.w3.org/2000/svg">
<path d="M19.9273 0C19.3934 0.00145559 18.8651 0.108531 18.3727 0.315057C17.8804 0.521583 17.4338 0.82348 17.0587 1.20336L1.44911 16.8124L1.38791 17.1214L0.307986 22.5508L0 24L1.4501 23.692L6.87934 22.612L7.18733 22.5499L22.7969 6.94077C23.1779 6.56636 23.4805 6.11982 23.687 5.6272C23.8936 5.13458 24 4.60575 24 4.07157C24 3.53739 23.8936 3.00856 23.687 2.51594C23.4805 2.02332 23.1779 1.57678 22.7969 1.20237C22.4215 0.822553 21.9747 0.520771 21.4822 0.314411C20.9897 0.108052 20.4613 0.0011963 19.9273 0ZM19.9273 1.88154C20.4248 1.88154 20.9263 2.10859 21.408 2.59131C22.3685 3.55084 22.3685 4.5923 21.408 5.55281L20.6992 6.231L17.7674 3.3001L18.4466 2.59131C18.9293 2.10859 19.4298 1.88154 19.9273 1.88154ZM16.3805 4.68904L19.3103 7.61994L7.37291 19.5568C6.72917 18.2953 5.70297 17.2698 4.44112 16.6269L16.3805 4.68904ZM3.17759 18.232C3.76193 18.4668 4.29272 18.8175 4.73804 19.2628C5.18335 19.7081 5.53397 20.2389 5.76881 20.8233L2.52904 21.4709L3.17759 18.232Z" fill="#606060"/>
</svg>
