<svg width="24" height="24" viewBox="0 0 24 24" fill="none" xmlns="http://www.w3.org/2000/svg">
<path d="M17.9293 2.97681C17.5237 2.97791 17.1223 3.05926 16.7482 3.21617C16.3742 3.37308 16.0348 3.60245 15.7498 3.89106L3.89006 15.7501L3.84356 15.9848L3.02306 20.1098L2.78906 21.2108L3.89081 20.9768L8.01581 20.1563L8.24981 20.1091L20.1096 8.25006C20.399 7.9656 20.6289 7.62634 20.7859 7.25207C20.9428 6.8778 21.0237 6.47602 21.0237 6.07018C21.0237 5.66434 20.9428 5.26256 20.7859 4.88829C20.6289 4.51403 20.399 4.17476 20.1096 3.89031C19.8244 3.60174 19.4849 3.37246 19.1107 3.21568C18.7365 3.0589 18.335 2.97772 17.9293 2.97681ZM17.9293 4.40631C18.3073 4.40631 18.6883 4.57881 19.0543 4.94556C19.7841 5.67456 19.7841 6.46581 19.0543 7.19556L18.5158 7.71081L16.2883 5.48406L16.8043 4.94556C17.1711 4.57881 17.5513 4.40631 17.9293 4.40631ZM15.2346 6.53931L17.4606 8.76606L8.39081 17.8351C7.90172 16.8767 7.12204 16.0975 6.16331 15.6091L15.2346 6.53931ZM5.20331 16.8286C5.64728 17.007 6.05057 17.2734 6.3889 17.6117C6.72724 17.9501 6.99364 18.3533 7.17206 18.7973L4.71056 19.2893L5.20331 16.8286Z" fill="#B3B3B3"/>
</svg>
