<svg width="35" height="35" viewBox="0 0 35 35" fill="none" xmlns="http://www.w3.org/2000/svg">
<path d="M8.75016 32.0833C7.94808 32.0833 7.26169 31.798 6.691 31.2273C6.1203 30.6566 5.83447 29.9697 5.8335 29.1666V14.5833C5.8335 13.7812 6.11933 13.0948 6.691 12.5241C7.26266 11.9535 7.94905 11.6676 8.75016 11.6666H10.2085V8.74998C10.2085 6.73262 10.9197 5.01324 12.342 3.59186C13.7644 2.17047 15.4838 1.45929 17.5002 1.45831C19.5166 1.45734 21.2364 2.16852 22.6597 3.59186C24.0831 5.01519 24.7938 6.73456 24.7918 8.74998V11.6666H26.2502C27.0522 11.6666 27.7391 11.9525 28.3108 12.5241C28.8825 13.0958 29.1678 13.7822 29.1668 14.5833V29.1666C29.1668 29.9687 28.8815 30.6556 28.3108 31.2273C27.7401 31.7989 27.0532 32.0843 26.2502 32.0833H8.75016ZM8.75016 29.1666H26.2502V14.5833H8.75016V29.1666ZM17.5002 24.7916C18.3022 24.7916 18.9891 24.5063 19.5608 23.9356C20.1325 23.3649 20.4178 22.678 20.4168 21.875C20.4159 21.0719 20.1305 20.3855 19.5608 19.8158C18.9911 19.2461 18.3042 18.9603 17.5002 18.9583C16.6961 18.9564 16.0097 19.2422 15.441 19.8158C14.8722 20.3894 14.5864 21.0758 14.5835 21.875C14.5806 22.6741 14.8664 23.361 15.441 23.9356C16.0156 24.5102 16.702 24.7955 17.5002 24.7916ZM13.1252 11.6666H21.8752V8.74998C21.8752 7.5347 21.4498 6.50172 20.5991 5.65102C19.7484 4.80033 18.7154 4.37498 17.5002 4.37498C16.2849 4.37498 15.2519 4.80033 14.4012 5.65102C13.5505 6.50172 13.1252 7.5347 13.1252 8.74998V11.6666Z" fill="black"/>
</svg>
