<svg width="27" height="27" viewBox="0 0 27 27" fill="none" xmlns="http://www.w3.org/2000/svg">
<path d="M24.5833 26.625L15.3958 17.4375C14.6667 18.0208 13.8281 18.4826 12.8802 18.8229C11.9323 19.1632 10.9236 19.3333 9.85417 19.3333C7.20486 19.3333 4.96292 18.4156 3.12833 16.58C1.29375 14.7444 0.375973 12.5025 0.375001 9.85417C0.374029 7.20583 1.29181 4.96389 3.12833 3.12833C4.96486 1.29278 7.20681 0.375 9.85417 0.375C12.5015 0.375 14.744 1.29278 16.5815 3.12833C18.419 4.96389 19.3363 7.20583 19.3333 9.85417C19.3333 10.9236 19.1632 11.9323 18.8229 12.8802C18.4826 13.8281 18.0208 14.6667 17.4375 15.3958L26.625 24.5833L24.5833 26.625ZM9.85417 16.4167C11.6771 16.4167 13.2268 15.7789 14.5033 14.5033C15.7799 13.2278 16.4176 11.6781 16.4167 9.85417C16.4157 8.03028 15.7779 6.48104 14.5033 5.20646C13.2288 3.93188 11.679 3.29361 9.85417 3.29167C8.02931 3.28972 6.48007 3.92799 5.20646 5.20646C3.93285 6.48493 3.29458 8.03417 3.29167 9.85417C3.28875 11.6742 3.92702 13.2239 5.20646 14.5033C6.4859 15.7828 8.03514 16.4206 9.85417 16.4167Z" fill="#6B6B6B"/>
</svg>
