<svg width="20" height="20" viewBox="0 0 20 20" fill="none" xmlns="http://www.w3.org/2000/svg">
<path d="M10 1.66682C9.23156 1.66666 8.48668 1.93201 7.8914 2.41795C7.29612 2.90389 6.88702 3.58058 6.73333 4.33349C6.73333 4.33349 6.66667 4.58349 6.66667 5.00015H5C5 4.58349 5.1 4.00015 5.1 4.00015C5.34674 2.785 6.0362 1.70488 7.03453 0.969467C8.03285 0.234057 9.26882 -0.104171 10.5025 0.0204426C11.7362 0.145056 12.8795 0.723621 13.7106 1.64382C14.5417 2.56402 15.0012 3.7602 15 5.00015V6.66682H13.3333V5.00015C13.3333 4.1161 12.9821 3.26825 12.357 2.64313C11.7319 2.01801 10.8841 1.66682 10 1.66682ZM10.8333 15.0002V11.6668H9.16667V15.0002H10.8333Z" fill="#539E84"/>
<path fill-rule="evenodd" clip-rule="evenodd" d="M2.5 8.33301H17.5V18.333H2.5V8.33301ZM4.16667 9.99967V16.6663H15.8333V9.99967H4.16667Z" fill="#539E84"/>
</svg>
