<svg width="20" height="20" viewBox="0 0 20 20" fill="none" xmlns="http://www.w3.org/2000/svg">
<g id="fluent:emoji-28-regular">
<path id="Vector" d="M12.4992 9.28585C12.7833 9.28585 13.0558 9.17297 13.2568 8.97204C13.4577 8.77111 13.5706 8.49859 13.5706 8.21442C13.5706 7.93026 13.4577 7.65774 13.2568 7.45681C13.0558 7.25588 12.7833 7.143 12.4992 7.143C12.215 7.143 11.9425 7.25588 11.7415 7.45681C11.5406 7.65774 11.4277 7.93026 11.4277 8.21442C11.4277 8.49859 11.5406 8.77111 11.7415 8.97204C11.9425 9.17297 12.215 9.28585 12.4992 9.28585ZM8.57059 8.21442C8.57059 8.49859 8.45771 8.77111 8.25678 8.97204C8.05585 9.17297 7.78332 9.28585 7.49916 9.28585C7.215 9.28585 6.94248 9.17297 6.74155 8.97204C6.54062 8.77111 6.42773 8.49859 6.42773 8.21442C6.42773 7.93026 6.54062 7.65774 6.74155 7.45681C6.94248 7.25588 7.215 7.143 7.49916 7.143C7.78332 7.143 8.05585 7.25588 8.25678 7.45681C8.45771 7.65774 8.57059 7.93026 8.57059 8.21442ZM5.94773 12.2359C6.06482 12.1562 6.2087 12.1261 6.34791 12.1522C6.48712 12.1783 6.61033 12.2584 6.69059 12.3751L6.69702 12.3837L6.72845 12.4259C6.75845 12.4644 6.80702 12.523 6.87345 12.5959C7.00702 12.7409 7.21059 12.9387 7.48631 13.1366C8.03488 13.5316 8.86488 13.9287 9.99916 13.9287C11.1334 13.9287 11.9634 13.5316 12.512 13.1366C12.7877 12.9387 12.992 12.7409 13.1249 12.5959C13.1873 12.528 13.2464 12.4572 13.302 12.3837L13.307 12.3766C13.3871 12.2591 13.5105 12.1783 13.6501 12.1518C13.7898 12.1254 13.9342 12.1555 14.0517 12.2355C14.1691 12.3155 14.25 12.439 14.2764 12.5786C14.3029 12.7182 14.2728 12.8627 14.1927 12.9801L14.1913 12.9809V12.9823L14.1892 12.9844L14.1842 12.9916L14.1684 13.0137L14.1142 13.0851C14.0503 13.1658 13.9836 13.2442 13.9142 13.3201C13.6798 13.575 13.4196 13.8048 13.1377 14.0059C12.4449 14.5051 11.4006 15.0001 9.99916 15.0001C8.59773 15.0001 7.55345 14.5044 6.86059 14.0066C6.57842 13.8051 6.31797 13.5748 6.08345 13.3194C5.98859 13.2149 5.89896 13.1057 5.81488 12.9923L5.80916 12.9851L5.80773 12.9823L5.80702 12.9809L5.80631 12.9801C5.72636 12.8627 5.69635 12.7183 5.72288 12.5787C5.7494 12.4391 5.83028 12.3158 5.94773 12.2359ZM9.99916 1.42871C5.26559 1.42871 1.42773 5.26657 1.42773 10.0001C1.42773 14.7337 5.26559 18.5716 9.99916 18.5716C14.7327 18.5716 18.5706 14.7337 18.5706 10.0001C18.5706 5.26657 14.7327 1.42871 9.99916 1.42871ZM2.49916 10.0001C2.49916 5.858 5.85702 2.50014 9.99916 2.50014C14.1413 2.50014 17.4992 5.858 17.4992 10.0001C17.4992 14.1423 14.1413 17.5001 9.99916 17.5001C5.85702 17.5001 2.49916 14.1423 2.49916 10.0001Z" fill="#0341BE"/>
</g>
</svg>
