<svg width="27" height="27" viewBox="0 0 27 27" fill="none" xmlns="http://www.w3.org/2000/svg">
<rect width="25.4673" height="25.4673" transform="matrix(1 0 0 -1 0.583984 26.1094)" fill="white"/>
<path d="M12.8987 19.9737L13.1428 22.4875C13.2393 23.4977 14.1827 24.1832 15.1356 23.937C16.5692 23.5656 17.5762 22.2339 17.5762 20.7069V17.4864C17.5762 16.7701 17.5762 16.4114 17.7311 16.1493C17.8192 15.9997 17.9402 15.8734 18.0845 15.7832C18.3391 15.623 18.6861 15.623 19.3791 15.623H19.7993C21.6064 15.623 22.5094 15.623 23.0654 15.2092C23.4825 14.8983 23.7764 14.443 23.8931 13.9273C24.0481 13.2376 23.7011 12.3749 23.006 10.6516L22.6601 9.79206C22.4594 9.29426 22.3773 8.75659 22.4203 8.22158C22.6665 5.17187 20.2481 2.60286 17.2918 2.77158L6.23051 3.4072C5.02187 3.47618 4.41809 3.5112 3.87266 3.99401C3.32618 4.47683 3.22325 4.9745 3.01845 5.96879C2.58179 8.08397 2.60168 10.268 3.07681 12.3749C3.37711 13.6992 4.64199 14.4123 5.94825 14.2425C9.4118 13.7968 12.5517 16.386 12.8987 19.9737Z" fill="#51B69E" stroke="#2A6658" stroke-width="2.03738" stroke-linecap="round" stroke-linejoin="round"/>
<path d="M8.01222 13.9062L7.86684 13.4213C6.9269 10.2839 6.97766 6.93294 8.01222 3.82545" fill="#51B69E"/>
<path d="M8.01222 13.9062L7.86684 13.4213C6.9269 10.2839 6.97766 6.93294 8.01222 3.82545" stroke="#2A6658" stroke-width="2.03738" stroke-linecap="round" stroke-linejoin="round"/>
</svg>
