<svg width="30" height="30" viewBox="0 0 30 30" fill="none" xmlns="http://www.w3.org/2000/svg">
<path d="M11.25 14.25C11.6478 14.25 12.0294 14.092 12.3107 13.8107C12.592 13.5294 12.75 13.1478 12.75 12.75C12.75 12.3522 12.592 11.9706 12.3107 11.6893C12.0294 11.408 11.6478 11.25 11.25 11.25C10.8522 11.25 10.4706 11.408 10.1893 11.6893C9.90804 11.9706 9.75 12.3522 9.75 12.75C9.75 13.1478 9.90804 13.5294 10.1893 13.8107C10.4706 14.092 10.8522 14.25 11.25 14.25ZM20.25 12.75C20.25 13.1478 20.092 13.5294 19.8107 13.8107C19.5294 14.092 19.1478 14.25 18.75 14.25C18.3522 14.25 17.9706 14.092 17.6893 13.8107C17.408 13.5294 17.25 13.1478 17.25 12.75C17.25 12.3522 17.408 11.9706 17.6893 11.6893C17.9706 11.408 18.3522 11.25 18.75 11.25C19.1478 11.25 19.5294 11.408 19.8107 11.6893C20.092 11.9706 20.25 12.3522 20.25 12.75ZM20.343 20.085C20.1885 20.2085 19.9915 20.2659 19.7948 20.2449C19.5982 20.2238 19.4178 20.1259 19.293 19.9725L19.2885 19.968L19.254 19.9305C19.1993 19.8722 19.1422 19.8162 19.083 19.7625C18.8496 19.5514 18.5947 19.3654 18.3225 19.2075C17.631 18.8025 16.542 18.375 15.003 18.375C13.464 18.375 12.3735 18.801 11.679 19.209C11.4063 19.3668 11.1509 19.5528 10.917 19.764C10.8447 19.8291 10.7756 19.8977 10.71 19.9695L10.7055 19.974C10.6435 20.0505 10.5669 20.1141 10.4803 20.161C10.3937 20.208 10.2987 20.2374 10.2007 20.2477C10.1027 20.2579 10.0037 20.2487 9.90923 20.2207C9.81478 20.1927 9.72678 20.1463 9.65025 20.0842C9.57372 20.0222 9.51017 19.9457 9.46321 19.8591C9.41625 19.7725 9.38681 19.6774 9.37658 19.5795C9.36634 19.4815 9.3755 19.3824 9.40354 19.288C9.43158 19.1935 9.47795 19.1055 9.54 19.029L10.125 19.5L9.54 19.0305V19.029L9.543 19.0275L9.546 19.0245L9.5535 19.0155L9.5745 18.9885L9.648 18.9075C9.708 18.8415 9.795 18.7565 9.909 18.6525C10.137 18.4455 10.4715 18.1785 10.92 17.916C11.82 17.3865 13.17 16.875 15.003 16.875C16.836 16.875 18.183 17.385 19.083 17.916C19.533 18.18 19.866 18.4455 20.0925 18.651C20.2094 18.7581 20.3205 18.8712 20.4255 18.99L20.448 19.0155L20.4555 19.0245L20.4585 19.029C20.4585 19.029 20.46 19.032 19.875 19.5L20.46 19.032C20.5839 19.1872 20.6412 19.3853 20.6192 19.5827C20.5973 19.7801 20.498 19.9607 20.343 20.085ZM15 3C11.8174 3 8.76516 4.26428 6.51472 6.51472C4.26428 8.76516 3 11.8174 3 15C3 18.1826 4.26428 21.2348 6.51472 23.4853C8.76516 25.7357 11.8174 27 15 27C18.1826 27 21.2348 25.7357 23.4853 23.4853C25.7357 21.2348 27 18.1826 27 15C27 11.8174 25.7357 8.76516 23.4853 6.51472C21.2348 4.26428 18.1826 3 15 3ZM4.5 15C4.5 13.6211 4.77159 12.2557 5.29926 10.9818C5.82694 9.70791 6.60036 8.55039 7.57538 7.57538C8.55039 6.60036 9.70791 5.82694 10.9818 5.29926C12.2557 4.77159 13.6211 4.5 15 4.5C16.3789 4.5 17.7443 4.77159 19.0182 5.29926C20.2921 5.82694 21.4496 6.60036 22.4246 7.57538C23.3996 8.55039 24.1731 9.70791 24.7007 10.9818C25.2284 12.2557 25.5 13.6211 25.5 15C25.5 17.7848 24.3938 20.4555 22.4246 22.4246C20.4555 24.3938 17.7848 25.5 15 25.5C12.2152 25.5 9.54451 24.3938 7.57538 22.4246C5.60625 20.4555 4.5 17.7848 4.5 15Z" fill="#B60000"/>
</svg>
