<svg width="10" height="10" viewBox="0 0 10 10" fill="none" xmlns="http://www.w3.org/2000/svg">
<g id="material-symbols:lock-outline">
<path id="Vector" d="M2.49935 9.16699C2.27018 9.16699 2.07407 9.08547 1.91102 8.92241C1.74796 8.75935 1.66629 8.5631 1.66602 8.33366V4.16699C1.66602 3.93783 1.74768 3.74171 1.91102 3.57866C2.07435 3.4156 2.27046 3.33394 2.49935 3.33366H2.91602V2.50033C2.91602 1.92394 3.11921 1.43269 3.5256 1.02658C3.93199 0.620465 4.42324 0.41727 4.99935 0.416992C5.57546 0.416715 6.06685 0.619909 6.47352 1.02658C6.88018 1.43324 7.08324 1.92449 7.08268 2.50033V3.33366H7.49935C7.72852 3.33366 7.92477 3.41533 8.0881 3.57866C8.25143 3.74199 8.33296 3.9381 8.33268 4.16699V8.33366C8.33268 8.56283 8.25116 8.75908 8.0881 8.92241C7.92504 9.08574 7.72879 9.16727 7.49935 9.16699H2.49935ZM2.49935 8.33366H7.49935V4.16699H2.49935V8.33366ZM4.99935 7.08366C5.22852 7.08366 5.42477 7.00213 5.5881 6.83908C5.75143 6.67602 5.83296 6.47977 5.83268 6.25033C5.83241 6.02088 5.75088 5.82477 5.5881 5.66199C5.42532 5.49922 5.22907 5.41755 4.99935 5.41699C4.76963 5.41644 4.57352 5.4981 4.41102 5.66199C4.24852 5.82588 4.16685 6.02199 4.16602 6.25033C4.16518 6.47866 4.24685 6.67491 4.41102 6.83908C4.57518 7.00324 4.77129 7.08477 4.99935 7.08366ZM3.74935 3.33366H6.24935V2.50033C6.24935 2.1531 6.12782 1.85796 5.88477 1.61491C5.64171 1.37185 5.34657 1.25033 4.99935 1.25033C4.65213 1.25033 4.35699 1.37185 4.11393 1.61491C3.87088 1.85796 3.74935 2.1531 3.74935 2.50033V3.33366Z" fill="#6B6B6B"/>
</g>
</svg>
