<svg width="10" height="10" viewBox="0 0 10 10" fill="none" xmlns="http://www.w3.org/2000/svg">
<g id="material-symbols:lock-outline">
<path id="Vector" d="M2.5013 9.16699C2.27214 9.16699 2.07602 9.08547 1.91297 8.92241C1.74991 8.75935 1.66825 8.5631 1.66797 8.33366V4.16699C1.66797 3.93783 1.74964 3.74171 1.91297 3.57866C2.0763 3.4156 2.27241 3.33394 2.5013 3.33366H2.91797V2.50033C2.91797 1.92394 3.12116 1.43269 3.52755 1.02658C3.93394 0.620465 4.42519 0.41727 5.0013 0.416992C5.57741 0.416715 6.0688 0.619909 6.47547 1.02658C6.88214 1.43324 7.08519 1.92449 7.08464 2.50033V3.33366H7.5013C7.73047 3.33366 7.92672 3.41533 8.09005 3.57866C8.25339 3.74199 8.33491 3.9381 8.33464 4.16699V8.33366C8.33464 8.56283 8.25311 8.75908 8.09005 8.92241C7.927 9.08574 7.73075 9.16727 7.5013 9.16699H2.5013ZM2.5013 8.33366H7.5013V4.16699H2.5013V8.33366ZM5.0013 7.08366C5.23047 7.08366 5.42672 7.00213 5.59005 6.83908C5.75339 6.67602 5.83491 6.47977 5.83464 6.25033C5.83436 6.02088 5.75283 5.82477 5.59005 5.66199C5.42727 5.49922 5.23102 5.41755 5.0013 5.41699C4.77158 5.41644 4.57547 5.4981 4.41297 5.66199C4.25047 5.82588 4.1688 6.02199 4.16797 6.25033C4.16714 6.47866 4.2488 6.67491 4.41297 6.83908C4.57714 7.00324 4.77325 7.08477 5.0013 7.08366ZM3.7513 3.33366H6.2513V2.50033C6.2513 2.1531 6.12977 1.85796 5.88672 1.61491C5.64366 1.37185 5.34852 1.25033 5.0013 1.25033C4.65408 1.25033 4.35894 1.37185 4.11589 1.61491C3.87283 1.85796 3.7513 2.1531 3.7513 2.50033V3.33366Z" fill="#6B6B6B"/>
</g>
</svg>
