<svg width="20" height="20" viewBox="0 0 20 20" fill="none" xmlns="http://www.w3.org/2000/svg">
<path d="M5.00065 18.333C4.54232 18.333 4.1501 18.17 3.82398 17.8438C3.49787 17.5177 3.33454 17.1252 3.33398 16.6663V8.33301C3.33398 7.87468 3.49732 7.48245 3.82398 7.15634C4.15065 6.83023 4.54287 6.6669 5.00065 6.66634H5.83398V4.99968C5.83398 3.8469 6.24037 2.8644 7.05315 2.05218C7.86593 1.23995 8.84843 0.833564 10.0007 0.833008C11.1529 0.832453 12.1357 1.23884 12.949 2.05218C13.7623 2.86551 14.1684 3.84801 14.1673 4.99968V6.66634H15.0007C15.459 6.66634 15.8515 6.82968 16.1782 7.15634C16.5048 7.48301 16.6679 7.87523 16.6673 8.33301V16.6663C16.6673 17.1247 16.5043 17.5172 16.1782 17.8438C15.852 18.1705 15.4595 18.3336 15.0007 18.333H5.00065ZM5.00065 16.6663H15.0007V8.33301H5.00065V16.6663ZM10.0007 14.1663C10.459 14.1663 10.8515 14.0033 11.1782 13.6772C11.5048 13.3511 11.6679 12.9586 11.6673 12.4997C11.6668 12.0408 11.5037 11.6486 11.1782 11.323C10.8526 10.9975 10.4601 10.8341 10.0007 10.833C9.54121 10.8319 9.14899 10.9952 8.82399 11.323C8.49899 11.6508 8.33565 12.043 8.33398 12.4997C8.33232 12.9563 8.49565 13.3488 8.82399 13.6772C9.15232 14.0055 9.54454 14.1686 10.0007 14.1663ZM7.50065 6.66634H12.5007V4.99968C12.5007 4.30523 12.2576 3.71495 11.7715 3.22884C11.2854 2.74273 10.6951 2.49968 10.0007 2.49968C9.30621 2.49968 8.71593 2.74273 8.22982 3.22884C7.74371 3.71495 7.50065 4.30523 7.50065 4.99968V6.66634Z" fill="#51B69E"/>
</svg>
