<svg width="26" height="26" viewBox="0 0 26 26" fill="none" xmlns="http://www.w3.org/2000/svg">
<rect width="25.4673" height="25.4673" transform="translate(0 0.230469)" fill="white"/>
<path d="M12.3147 6.36617L12.5588 3.85234C12.6553 2.84214 13.5987 2.15664 14.5516 2.40283C15.9852 2.77422 16.9922 4.10595 16.9922 5.63293V8.85348C16.9922 9.56974 16.9922 9.92841 17.1471 10.1905C17.2352 10.3401 17.3562 10.4664 17.5005 10.5566C17.7552 10.7168 18.1021 10.7168 18.7951 10.7168H19.2153C21.0224 10.7168 21.9254 10.7168 22.4815 11.1307C22.8985 11.4416 23.1924 11.8968 23.3091 12.4125C23.4641 13.1023 23.1171 13.965 22.422 15.6883L22.0761 16.5478C21.8754 17.0456 21.7933 17.5833 21.8363 18.1183C22.0825 21.168 19.6641 23.737 16.7078 23.5683L5.64653 22.9326C4.43789 22.8637 3.8341 22.8286 3.28868 22.3458C2.74219 21.863 2.63926 21.3653 2.43446 20.3711C1.9978 18.2559 2.0177 16.0718 2.49283 13.965C2.79313 12.6407 4.058 11.9276 5.36426 12.0974C8.82781 12.543 11.9677 9.95388 12.3147 6.36617Z" fill="#51B69E" stroke="#2A6658" stroke-width="2.03738" stroke-linecap="round" stroke-linejoin="round"/>
<path d="M7.42823 12.4336L7.28285 12.9185C6.34291 16.0559 6.39368 19.4069 7.42823 22.5144" fill="#51B69E"/>
<path d="M7.42823 12.4336L7.28285 12.9185C6.34291 16.0559 6.39368 19.4069 7.42823 22.5144" stroke="#2A6658" stroke-width="2.03738" stroke-linecap="round" stroke-linejoin="round"/>
</svg>
