<svg width="25" height="25" viewBox="0 0 25 25" fill="none" xmlns="http://www.w3.org/2000/svg">
<rect width="25" height="25" fill="white"/>
<path d="M12.0886 6.023L12.3282 3.55529C12.423 2.56362 13.349 1.89071 14.2844 2.13237C15.6917 2.49696 16.6803 3.80425 16.6803 5.30321V8.46466C16.6803 9.16779 16.6803 9.51987 16.8324 9.77716C16.9188 9.92404 17.0376 10.048 17.1792 10.1365C17.4292 10.2938 17.7699 10.2938 18.4501 10.2938H18.8626C20.6365 10.2938 21.523 10.2938 22.0688 10.7001C22.4782 11.0053 22.7667 11.4522 22.8813 11.9584C23.0334 12.6355 22.6928 13.4824 22.0105 15.174L21.6709 16.0178C21.4739 16.5065 21.3933 17.0343 21.4355 17.5595C21.6772 20.5532 19.3032 23.0751 16.4011 22.9095L5.54278 22.2855C4.35632 22.2178 3.76361 22.1834 3.22819 21.7095C2.69173 21.2355 2.59069 20.747 2.38965 19.7709C1.961 17.6945 1.98053 15.5506 2.44694 13.4824C2.74173 12.1824 3.9834 11.4824 5.26569 11.649C8.66569 12.0865 11.748 9.54487 12.0886 6.023Z" stroke="#7D817F" stroke-width="2" stroke-linecap="round" stroke-linejoin="round"/>
<path d="M7.29218 11.9795L7.14948 12.4555C6.22678 15.5354 6.27662 18.8249 7.29218 21.8753" stroke="#7D817F" stroke-width="2" stroke-linecap="round" stroke-linejoin="round"/>
</svg>
