<svg width="10" height="10" viewBox="0 0 10 10" fill="none" xmlns="http://www.w3.org/2000/svg">
<path d="M4.99935 7.08366C5.45768 7.08366 5.83268 6.70866 5.83268 6.25033C5.83268 5.79199 5.45768 5.41699 4.99935 5.41699C4.54102 5.41699 4.16602 5.79199 4.16602 6.25033C4.16602 6.70866 4.54102 7.08366 4.99935 7.08366ZM7.49935 3.33366H7.08268V2.50033C7.08268 1.35033 6.14935 0.416992 4.99935 0.416992C3.84935 0.416992 2.91602 1.35033 2.91602 2.50033H3.70768C3.70768 1.78783 4.28685 1.20866 4.99935 1.20866C5.71185 1.20866 6.29102 1.78783 6.29102 2.50033V3.33366H2.49935C2.04102 3.33366 1.66602 3.70866 1.66602 4.16699V8.33366C1.66602 8.79199 2.04102 9.16699 2.49935 9.16699H7.49935C7.95768 9.16699 8.33268 8.79199 8.33268 8.33366V4.16699C8.33268 3.70866 7.95768 3.33366 7.49935 3.33366ZM7.49935 8.33366H2.49935V4.16699H7.49935V8.33366Z" fill="#6B6B6B"/>
</svg>
