<svg width="25" height="25" viewBox="0 0 25 25" fill="none" xmlns="http://www.w3.org/2000/svg">
<rect width="25" height="25" transform="matrix(1 0 0 -1 0 25)" fill="white"/>
<path d="M12.0886 18.977L12.3282 21.4447C12.423 22.4364 13.349 23.1093 14.2844 22.8676C15.6917 22.503 16.6803 21.1958 16.6803 19.6968V16.5353C16.6803 15.8322 16.6803 15.4801 16.8324 15.2228C16.9188 15.076 17.0376 14.952 17.1792 14.8635C17.4292 14.7062 17.7699 14.7062 18.4501 14.7062H18.8626C20.6365 14.7062 21.523 14.7062 22.0688 14.2999C22.4782 13.9947 22.7667 13.5478 22.8813 13.0416C23.0334 12.3645 22.6928 11.5176 22.0105 9.82596L21.6709 8.98221C21.4739 8.49354 21.3933 7.96574 21.4355 7.44054C21.6772 4.44679 19.3032 1.92492 16.4011 2.09055L5.54278 2.71451C4.35632 2.78221 3.76361 2.81659 3.22819 3.29055C2.69173 3.7645 2.59069 4.25305 2.38965 5.22909C1.961 7.30546 1.98053 9.44941 2.44694 11.5176C2.74173 12.8176 3.9834 13.5176 5.26569 13.351C8.66569 12.9135 11.748 15.4551 12.0886 18.977Z" stroke="#7D817F" stroke-width="2" stroke-linecap="round" stroke-linejoin="round"/>
<path d="M7.29218 13.0205L7.14948 12.5445C6.22678 9.46463 6.27662 6.17514 7.29218 3.12467" stroke="#7D817F" stroke-width="2" stroke-linecap="round" stroke-linejoin="round"/>
</svg>
