<svg width="20" height="20" viewBox="0 0 20 20" fill="none" xmlns="http://www.w3.org/2000/svg">
<path d="M10.0007 14.1663C10.9173 14.1663 11.6673 13.4163 11.6673 12.4997C11.6673 11.583 10.9173 10.833 10.0007 10.833C9.08398 10.833 8.33398 11.583 8.33398 12.4997C8.33398 13.4163 9.08398 14.1663 10.0007 14.1663ZM15.0007 6.66634H14.1673V4.99967C14.1673 2.69967 12.3007 0.833008 10.0007 0.833008C7.70065 0.833008 5.83398 2.69967 5.83398 4.99967H7.41732C7.41732 3.57467 8.57565 2.41634 10.0007 2.41634C11.4257 2.41634 12.584 3.57467 12.584 4.99967V6.66634H5.00065C4.08398 6.66634 3.33398 7.41634 3.33398 8.33301V16.6663C3.33398 17.583 4.08398 18.333 5.00065 18.333H15.0007C15.9173 18.333 16.6673 17.583 16.6673 16.6663V8.33301C16.6673 7.41634 15.9173 6.66634 15.0007 6.66634ZM15.0007 16.6663H5.00065V8.33301H15.0007V16.6663Z" fill="#51B69E"/>
</svg>
